<?xml version="1.0" encoding="utf-8"?>
<!-- Generator: Adobe Illustrator 18.1.1, SVG Export Plug-In . SVG Version: 6.00 Build 0)  -->
<svg version="1.1" id="Bold" xmlns="http://www.w3.org/2000/svg" xmlns:xlink="http://www.w3.org/1999/xlink" x="0px" y="0px"
	 viewBox="-164 504.3 50 50" enable-background="new -164 504.3 50 50" xml:space="preserve">
<g>
	<path fill="#FFFFFF" d="M-116,551.2L-116,551.2L-116,551.2l0-16.1c0-7.9-1.8-13.9-11.4-13.9c-4.6,0-7.8,2.4-9,4.7h-0.1v-4h-9.2
		v29.2h9.5v-14.5c0-3.8,0.8-7.5,5.7-7.5c4.9,0,5,4.3,5,7.7v14.2H-116z"/>
	<path fill="#FFFFFF" d="M-161.3,521.9h9.5v29.2h-9.5V521.9z"/>
	<path fill="#FFFFFF" d="M-156.5,507.4c-3.1,0-5.5,2.4-5.5,5.3c0,2.9,2.5,5.3,5.5,5.3s5.5-2.4,5.5-5.3
		C-151,509.8-153.4,507.4-156.5,507.4z"/>
</g>
</svg>
