<?xml version="1.0" encoding="utf-8"?>
<!-- Generator: Adobe Illustrator 18.1.1, SVG Export Plug-In . SVG Version: 6.00 Build 0)  -->
<svg version="1.1" id="Capa_1" xmlns="http://www.w3.org/2000/svg" xmlns:xlink="http://www.w3.org/1999/xlink" x="0px" y="0px"
	 viewBox="0 545.3 50 50" enable-background="new 0 545.3 50 50" xml:space="preserve">
<path fill="#FFFFFF" d="M43.2,572.3c0.1-0.7,0.1-1.4,0.1-2.1C43.2,560.1,35,552,24.9,552c-0.7,0-1.4,0.1-2.1,0.1
	c-5.5-3.4-12.6-1.7-16,3.7c-2.4,3.8-2.4,8.6,0.1,12.4c-0.1,0.7-0.1,1.4-0.1,2.1c0.1,10.1,8.3,18.2,18.4,18.2c0.7,0,1.4-0.1,2.1-0.1
	c5.5,3.4,12.6,1.7,16-3.7C45.6,580.9,45.6,576.1,43.2,572.3z M25.1,583.6c-6.5,0-10-3.8-10-5.8V577c0-1.4,1.1-2.5,2.5-2.5
	c1.3,0,2.4,1,2.5,2.3c0.6,1.3,3,1.8,5,1.8c0.2,0,5-0.1,5-3.4c0-1.6-2.1-2.2-5.6-3.1c-4.2-1-9.4-2.3-9.4-7.6c0-6.7,5.2-7.5,9.1-7.5
	c5.6,0,9.2,2.2,9.2,5.8c0,1.4-1.1,2.5-2.5,2.5c-1.3,0-2.3-0.9-2.5-2.2c-1.2-0.9-2.8-1.3-4.3-1.1c-1-0.1-2,0.1-2.9,0.4
	c-0.5,0.2-1.1,0.7-1.1,2.2c0,1.2,2.5,1.9,5.2,2.6c4.4,1.2,9.8,2.7,9.9,8.1C35,580.3,31.1,583.5,25.1,583.6L25.1,583.6z"/>
</svg>
